# File created by Blade
# Date/Time:  Tue Apr 07 20:45:22 2015
# Frame Rate: 120.000 fps
#------------------------------------------------------
:FULLY-SPECIFIED
:DEGREES
502
root 1.752044 34.242454 -5.559815 17.073429 -19.006592 -48.994990
Spine 5.553706 25.300989 32.114499
Head 1.561799 -3.136990 21.307369
LeftShoulder -21.473462 23.242550 35.495938
LeftArm 109.601492 -78.098884 -86.809878
LeftForeArm 15.002478 0.000000 24.651537
LeftHand 9.650881 -0.000000 17.528054
LeftHandThumb1 -26.253704 0.000000 33.147579
RightShoulder -10.525248 33.059729 -34.007678
RightArm 68.149613 77.181039 106.267280
RightForeArm 40.572521 -0.000000 59.984185
RightHand 0.508243 -0.000000 28.522362
RightHandThumb1 -24.326973 -0.000000 -32.862282
LeftUpLeg -8.006113 -3.574305 41.407949
LeftLeg 22.968580 -0.000000 -0.000000
LeftFoot -15.368878 35.738952 -12.653698
LeftToeBase -11.490616 -0.000000 0.000000
RightUpLeg -134.079737 -54.379748 17.099196
RightLeg -8.962625 -0.000000 0.000000
RightFoot 39.875958 -21.375677 11.613026
RightToeBase 10.791942 -0.000000 -0.000000
503
root 1.750704 34.241094 -5.529799 17.180409 -19.107082 -49.082456
Spine 5.434228 25.419494 32.161908
Head 1.775425 -3.196613 21.191110
LeftShoulder -21.470071 23.333267 35.403162
LeftArm 109.288877 -78.036036 -86.465341
LeftForeArm 15.059639 0.000000 24.815375
LeftHand 9.581201 -0.000000 17.413560
LeftHandThumb1 -26.253704 0.000000 33.147579
RightShoulder -10.491556 33.000698 -33.973349
RightArm 67.969525 77.171094 106.030082
RightForeArm 40.563760 -0.000000 60.048807
RightHand 0.202589 0.000000 29.151830
RightHandThumb1 -24.326973 -0.000000 -32.862282
LeftUpLeg -7.905930 -3.614381 41.419127
LeftLeg 22.919197 -0.000000 -0.000000
LeftFoot -15.264083 35.940060 -12.468925
LeftToeBase -11.487335 -0.000000 0.000000
RightUpLeg -134.057544 -54.381999 17.142540
RightLeg -9.108870 -0.000000 0.000000
RightFoot 39.803973 -21.669288 11.695872
RightToeBase 11.009776 -0.000000 -0.000000
504
root 1.747822 34.240344 -5.497495 17.302499 -19.240410 -49.156717
Spine 5.290122 25.562097 32.155853
Head 1.998250 -3.226376 21.146003
LeftShoulder -21.473117 23.440921 35.326091
LeftArm 108.819017 -78.003251 -85.999743
LeftForeArm 15.207367 -0.000000 25.007199
LeftHand 9.459370 -0.000000 17.195829
LeftHandThumb1 -26.253704 0.000000 33.147579
RightShoulder -10.457094 32.891614 -33.910930
RightArm 67.948617 77.158448 105.946561
RightForeArm 40.637149 -0.000000 60.061214
RightHand 0.245808 -0.000000 29.154941
RightHandThumb1 -24.326973 -0.000000 -32.862282
LeftUpLeg -7.796950 -3.582335 41.415132
LeftLeg 22.883038 -0.000000 -0.000000
LeftFoot -15.203193 36.079035 -12.351394
LeftToeBase -11.606941 -0.000000 0.000000
RightUpLeg -134.053604 -54.383084 17.175305
RightLeg -9.246379 -0.000000 0.000000
RightFoot 39.780759 -21.840042 11.685147
RightToeBase 10.924345 -0.000000 -0.000000
505
root 1.744062 34.241635 -5.466945 17.357526 -19.313601 -49.224104
Spine 5.199826 25.598580 32.177258
Head 2.208032 -3.224977 21.098300
LeftShoulder -21.468882 23.542195 35.241515
LeftArm 108.288565 -78.012265 -85.531570
LeftForeArm 15.335438 0.000000 25.205452
LeftHand 9.444778 0.000000 17.198517
LeftHandThumb1 -26.253704 0.000000 33.147579
RightShoulder -10.413958 32.805431 -33.862924
RightArm 68.055319 77.169624 105.993449
RightForeArm 40.724268 -0.000000 60.042557
RightHand 0.357022 -0.000000 28.913297
RightHandThumb1 -24.326973 -0.000000 -32.862282
LeftUpLeg -7.709412 -3.598080 41.429181
LeftLeg 22.893537 -0.000000 -0.000000
LeftFoot -15.093347 36.185011 -12.209503
LeftToeBase -11.788991 -0.000000 0.000000
RightUpLeg -134.018672 -54.445780 17.200227
RightLeg -9.345127 -0.000000 0.000000
RightFoot 39.772114 -21.931417 11.652145
RightToeBase 10.675677 -0.000000 -0.000000
